# xmcd CD database file
#
# Track frame offsets:
#	150
#	12981
#	23896
#	36568
#	49812
#	62279
#	72596
#	85298
#	96961
#	108962
#	120360
#	133036
#	146780
#	158906
#	170760
#
# Disc length: 2463 seconds
#
# Revision: 1
# Processed by: cddbd v1.4PL0 Copyright (c) Steve Scherf et al.
# Submitted via: CDex 1.51
#
DISCID=d3099d0f
DTITLE=Ray Charles - Blues Before Sunrise
DYEAR=2003
DGENRE=Blues
TTITLE0=Don't Put All Your Dreams In One Basket
TTITLE1=A Sentimental Blues
TTITLE2=Blues Before Sunrise
TTITLE3=Alone In This City
TTITLE4=Rocking Chair Blues
TTITLE5=Ain't That Fine
TTITLE6=Can Anyone Ask For More
TTITLE7=How Long, How Long Blues
TTITLE8=I Love You, I Love You
TTITLE9=Let's Have A Ball
TTITLE10=You'll Always Miss The Water
TTITLE11=This Love Of Mine
TTITLE12=I've Had My Fun
TTITLE13=CC Rider
TTITLE14=Late In The Evening Blues
EXTD=YEAR: 2003
EXTT0=
EXTT1=
EXTT2=
EXTT3=
EXTT4=
EXTT5=
EXTT6=
EXTT7=
EXTT8=
EXTT9=
EXTT10=
EXTT11=
EXTT12=
EXTT13=
EXTT14=
PLAYORDER=
